<svg id="图层_1" data-name="图层 1" xmlns="http://www.w3.org/2000/svg" viewBox="0 0 67 81"><defs><style>.cls-1{fill:#ff8251;}</style></defs><title>1</title><path class="cls-1" d="M63.47,33.82h-22l24.59-27a3.1,3.1,0,0,0,0-4.72l0,0a4,4,0,0,0-5.23,0L33.65,31.87,6.41,1.09a4,4,0,0,0-5.23,0l0,0a3.13,3.13,0,0,0,0,4.73l24.74,28H3.76a3.53,3.53,0,0,0-3.7,3.34v.05a3.53,3.53,0,0,0,3.7,3.35H29.88V54H3.76a3.53,3.53,0,0,0-3.7,3.34v.06a3.53,3.53,0,0,0,3.7,3.34H29.88V77.66A3.54,3.54,0,0,0,33.58,81h.06a3.54,3.54,0,0,0,3.7-3.34V60.78H63.47a3.54,3.54,0,0,0,3.7-3.34v-.06A3.53,3.53,0,0,0,63.47,54H37.34V40.56H63.47a3.54,3.54,0,0,0,3.7-3.35v-.05a3.53,3.53,0,0,0-3.7-3.34Zm0,0"/></svg>