<svg id="图层_1" data-name="图层 1" xmlns="http://www.w3.org/2000/svg" viewBox="0 0 67 82"><defs><style>.cls-1{fill:#ff8251;}.cls-2{fill:#ffd6c0;}</style></defs><title>1</title><path class="cls-1" d="M64.13,82a2.91,2.91,0,0,1-1.63-.51L33.05,60.92,4.5,80.87a2.85,2.85,0,0,1-3,.2A2.91,2.91,0,0,1,0,78.52V11.28A11.29,11.29,0,0,1,11.25,0h44.5A11.29,11.29,0,0,1,67,11.28V79.12a2.86,2.86,0,0,1-1.54,2.55,2.91,2.91,0,0,1-1.33.33ZM33.05,56a4.6,4.6,0,0,1,2.65.82L62.15,75.29v-64a6.42,6.42,0,0,0-6.4-6.42H11.25a6.42,6.42,0,0,0-6.4,6.42V74.69L30.4,56.82A4.56,4.56,0,0,1,33.05,56Zm0,0"/><path class="cls-2" d="M17.65,26.17a7.5,7.5,0,1,0,7.5-7.53,7.52,7.52,0,0,0-7.5,7.53Zm0,0"/></svg>