<svg id="图层_1" data-name="图层 1" xmlns="http://www.w3.org/2000/svg" xmlns:xlink="http://www.w3.org/1999/xlink" viewBox="0 0 141 141"><defs><style>.cls-1{fill:url(#未命名的渐变_42);}.cls-2{fill:#ffbb61;}</style><radialGradient id="未命名的渐变_42" cx="74.61" cy="65.61" r="145.25" gradientUnits="userSpaceOnUse"><stop offset="0" stop-color="#fff"/><stop offset="0.2" stop-color="#fffefd" stop-opacity="0.99"/><stop offset="0.34" stop-color="#fffcf7" stop-opacity="0.96"/><stop offset="0.45" stop-color="#fff7ee" stop-opacity="0.9"/><stop offset="0.56" stop-color="#fff1e0" stop-opacity="0.82"/><stop offset="0.66" stop-color="#ffeace" stop-opacity="0.72"/><stop offset="0.75" stop-color="#ffe0b7" stop-opacity="0.59"/><stop offset="0.84" stop-color="#ffd59d" stop-opacity="0.44"/><stop offset="0.93" stop-color="#ffc87f" stop-opacity="0.27"/><stop offset="1" stop-color="#ffbb61" stop-opacity="0.1"/></radialGradient></defs><title>1</title><circle class="cls-1" cx="70.5" cy="70.5" r="70.5"/><path class="cls-2" d="M92,49.67V38.07c0-1.93-.46-2.4,1.4-2.4h6.91a1.75,1.75,0,0,1,2,1.37,1.71,1.71,0,0,1,0,.84V57.41a2.75,2.75,0,0,0,1,2.31c3.2,2.63,6.31,5.35,9.47,8.07,1.53,1.32,1.57,2,.27,3.57-.79.94-1.57,1.93-2.36,2.91a1.72,1.72,0,0,1-2.37.75,2,2,0,0,1-.6-.51l-33.51-29c-.37-.33-.79-.66-1.25-1q-3.75,3.24-7.52,6.44L38.27,74.41a1.7,1.7,0,0,1-1.14.72,1.75,1.75,0,0,1-1.32-.29,2.73,2.73,0,0,1-.56-.66c-.83-1-1.71-2.07-2.55-3.15a1.8,1.8,0,0,1-.32-2.53,1.31,1.31,0,0,1,.55-.47C38,63.61,43.05,59.25,48.15,54.88c6.78-5.82,13.51-11.65,20.28-17.47a6.23,6.23,0,0,1,4.38-2,6.17,6.17,0,0,1,4.48,1.73l.24.23c3.62,3.15,7.28,6.29,10.9,9.44.19.14.37.28.7.56Zm-9.46,56.06V86.53H63.61v19.2H47.32c-3.48,0-2.42.52-2.6-3.19,0-8.22,0-17.33,0-25.55,0-.42-.56-.37-.19-.65,5.53-4.75,11-9.49,16.62-14.19,3.66-3.14,7.37-6.29,11-9.43.28-.24.56-.47.93-.75q3.27,2.81,6.59,5.58C86.9,63.7,94.28,70.89,101.52,77c.79.66.93.28,0,1.78-.18,7.89,0,16,0,23.81a9,9,0,0,0,0,3.19,7,7,0,0,1-3.16,0c-6.49-.09-9.37-.09-15.82-.09,1.11,0,.19,0,0,0Zm0,0"/></svg>