<svg id="图层_1" data-name="图层 1" xmlns="http://www.w3.org/2000/svg" xmlns:xlink="http://www.w3.org/1999/xlink" viewBox="0 0 141 141"><defs><style>.cls-1{fill:url(#未命名的渐变_42);}.cls-2{fill:#ffdfb8;}.cls-3{fill:#ffbb61;}</style><radialGradient id="未命名的渐变_42" cx="74.61" cy="65.61" r="145.25" gradientUnits="userSpaceOnUse"><stop offset="0" stop-color="#fff"/><stop offset="0.2" stop-color="#fffefd" stop-opacity="0.99"/><stop offset="0.34" stop-color="#fffcf7" stop-opacity="0.96"/><stop offset="0.45" stop-color="#fff7ee" stop-opacity="0.9"/><stop offset="0.56" stop-color="#fff1e0" stop-opacity="0.82"/><stop offset="0.66" stop-color="#ffeace" stop-opacity="0.72"/><stop offset="0.75" stop-color="#ffe0b7" stop-opacity="0.59"/><stop offset="0.84" stop-color="#ffd59d" stop-opacity="0.44"/><stop offset="0.93" stop-color="#ffc87f" stop-opacity="0.27"/><stop offset="1" stop-color="#ffbb61" stop-opacity="0.1"/></radialGradient></defs><title>1</title><circle class="cls-1" cx="70.5" cy="70.5" r="70.5"/><path class="cls-2" d="M48.42,70Q87.92,63.6,90,72.37t1.63,30.88H48.42Zm0,0"/><path class="cls-3" d="M102.68,62.83l-7,7a1.2,1.2,0,0,1-1.73,0,3,3,0,0,0-2.1-.87c-3.08,0-4.56,2.47-4.56,6.17l2.47,24.67c.12.74-.62,1.23-1.36,1.23H51.61a1.19,1.19,0,0,1-1.23-1.35l2.34-24.55C53.09,72,51.12,69,47.91,69a2.52,2.52,0,0,0-1.85.74,1.17,1.17,0,0,1-.86.37,1.19,1.19,0,0,1-.87-.37l-7-7a1.2,1.2,0,0,1-.36-.86A1.19,1.19,0,0,1,37.3,61L54.7,44.82l.74-.74a1.22,1.22,0,0,1,2,.24c3,5.18,6,8.64,12.46,8.64s9.5-3.46,12.46-8.64a1.21,1.21,0,0,1,2-.24l.74.74L102.56,61.1a1.12,1.12,0,0,1,.12,1.73m3.45-5.19L87.63,40.37a7.18,7.18,0,0,0-5.31-2.22,3.72,3.72,0,0,0-3.45,2.35C77,44.94,75.17,48,70,48s-7-3.08-8.88-7.52a3.72,3.72,0,0,0-3.45-2.35,8.24,8.24,0,0,0-5.43,2.22L33.85,57.52a6.1,6.1,0,0,0,0,8.76l7,7a6,6,0,0,0,6.41,1.36c.38-.13.5.12.5.49L45.32,99.83c0,4.94,2.47,6.17,6.17,6.17h37c3.7,0,6.16-1.23,6.16-6.17L92.2,75.16c0-.37.12-.49.49-.37a6.45,6.45,0,0,0,6.54-1.35l7-7a6.21,6.21,0,0,0-.13-8.75"/><path class="cls-3" d="M89.11,62.83H79.24a2.47,2.47,0,0,1,0-4.94h9.87a2.47,2.47,0,0,1,0,4.94"/></svg>