<svg id="图层_1" data-name="图层 1" xmlns="http://www.w3.org/2000/svg" xmlns:xlink="http://www.w3.org/1999/xlink" viewBox="0 0 141 141"><defs><style>.cls-1{fill:url(#未命名的渐变_42);}.cls-2{fill:#ffbb61;}</style><radialGradient id="未命名的渐变_42" cx="74.63" cy="65.24" r="145.25" gradientUnits="userSpaceOnUse"><stop offset="0" stop-color="#fff"/><stop offset="0.2" stop-color="#fffefd" stop-opacity="0.99"/><stop offset="0.34" stop-color="#fffcf7" stop-opacity="0.96"/><stop offset="0.45" stop-color="#fff7ee" stop-opacity="0.9"/><stop offset="0.56" stop-color="#fff1e0" stop-opacity="0.82"/><stop offset="0.66" stop-color="#ffeace" stop-opacity="0.72"/><stop offset="0.75" stop-color="#ffe0b7" stop-opacity="0.59"/><stop offset="0.84" stop-color="#ffd59d" stop-opacity="0.44"/><stop offset="0.93" stop-color="#ffc87f" stop-opacity="0.27"/><stop offset="1" stop-color="#ffbb61" stop-opacity="0.1"/></radialGradient></defs><circle class="cls-1" cx="70.53" cy="70.13" r="70.5"/><path class="cls-2" d="M70.5,101a20.55,20.55,0,0,1-14.66-6.09,2.13,2.13,0,0,1,3-3,16.62,16.62,0,0,0,23.41,0,2.13,2.13,0,0,1,3,3A21,21,0,0,1,70.5,101Zm0,10.59A35,35,0,0,1,38.2,90a9.55,9.55,0,0,1-2.11-19A35,35,0,0,1,61.71,42.94a2.13,2.13,0,1,1,1.06,4.13,30.75,30.75,0,0,0-22.71,26.2,2.06,2.06,0,0,1-2.17,1.86h-.16a5.35,5.35,0,0,0,.05,10.69,5.42,5.42,0,0,0,1.32-.16A2.18,2.18,0,0,1,41.65,87a30.66,30.66,0,0,0,57.81,0A2.09,2.09,0,0,1,102,85.66a5.72,5.72,0,0,0,1.32.16,5.35,5.35,0,1,0,0-10.69h-.16A2.14,2.14,0,0,1,101,73.27a30.85,30.85,0,0,0-22.71-26.2,2.18,2.18,0,0,1-1.54-2.6,2.1,2.1,0,0,1,2.59-1.53A35.06,35.06,0,0,1,105,71a9.58,9.58,0,0,1-1.64,19h-.48A35.08,35.08,0,0,1,70.5,111.56Zm-16.73-38a3.71,3.71,0,0,0,7.41,0h0a3.71,3.71,0,1,0-7.41,0Zm26.21,0a3.71,3.71,0,1,0,3.71-3.7A3.71,3.71,0,0,0,80,73.59ZM70.5,59a10.18,10.18,0,0,1-10.38-10c0-7.26,4.19-14.35,11.76-20a2.1,2.1,0,0,1,3.39,1.69A14.6,14.6,0,0,0,78,40.08a14.77,14.77,0,0,1,2.91,9A10.25,10.25,0,0,1,70.5,59Zm.85-24c-3.39,3.17-7,8-7,14a6.16,6.16,0,0,0,12.28,0,10.65,10.65,0,0,0-2.22-6.67,19.27,19.27,0,0,1-3.07-7.36Z"/></svg>