<svg id="图层_1" data-name="图层 1" xmlns="http://www.w3.org/2000/svg" xmlns:xlink="http://www.w3.org/1999/xlink" viewBox="0 0 142 141"><defs><style>.cls-1{fill:url(#未命名的渐变_42);}.cls-2{fill:#ffbb61;}</style><radialGradient id="未命名的渐变_42" cx="75.45" cy="65.24" r="145.25" gradientUnits="userSpaceOnUse"><stop offset="0" stop-color="#fff"/><stop offset="0.2" stop-color="#fffefd" stop-opacity="0.99"/><stop offset="0.34" stop-color="#fffcf7" stop-opacity="0.96"/><stop offset="0.45" stop-color="#fff7ee" stop-opacity="0.9"/><stop offset="0.56" stop-color="#fff1e0" stop-opacity="0.82"/><stop offset="0.66" stop-color="#ffeace" stop-opacity="0.72"/><stop offset="0.75" stop-color="#ffe0b7" stop-opacity="0.59"/><stop offset="0.84" stop-color="#ffd59d" stop-opacity="0.44"/><stop offset="0.93" stop-color="#ffc87f" stop-opacity="0.27"/><stop offset="1" stop-color="#ffbb61" stop-opacity="0.1"/></radialGradient></defs><circle class="cls-1" cx="71.35" cy="70.13" r="70.5"/><path class="cls-2" d="M91.65,43.33H104.5a2,2,0,0,0,2.07-1.94V38.57a2,2,0,0,0-2.07-1.94H91.65a2,2,0,0,0-2.08,1.94v2.82A2,2,0,0,0,91.65,43.33Zm-5.54,3h22a3.14,3.14,0,0,1,3.24,3V100.6a3.14,3.14,0,0,1-3.24,3H34.54a3.14,3.14,0,0,1-3.24-3V49.33a3.14,3.14,0,0,1,3.24-3H41.6a3.35,3.35,0,0,0,2.33-.92l5.75-5.55A3.36,3.36,0,0,1,52,38.9l26.41.26a1.76,1.76,0,0,1,1.26.52l6.44,6.62ZM97.28,64a3.85,3.85,0,1,0-4-3.85,3.93,3.93,0,0,0,4,3.85ZM64.74,92.45A20.22,20.22,0,0,0,79,86.69,18.24,18.24,0,0,0,84.6,73.26c0-10.58-8.91-19.19-19.85-19.19S44.88,62.68,44.88,73.26,53.79,92.45,64.74,92.45ZM52.07,73.26a12.68,12.68,0,0,1,25.35,0A12.34,12.34,0,0,1,64.74,85.51,12.48,12.48,0,0,1,52.07,73.26Z"/></svg>