<svg id="图层_1" data-name="图层 1" xmlns="http://www.w3.org/2000/svg" xmlns:xlink="http://www.w3.org/1999/xlink" viewBox="0 0 141 141"><defs><style>.cls-1{fill:url(#未命名的渐变_42);}.cls-2{fill:#ffbb61;}</style><radialGradient id="未命名的渐变_42" cx="74.61" cy="65.61" r="145.25" gradientUnits="userSpaceOnUse"><stop offset="0" stop-color="#fff"/><stop offset="0.2" stop-color="#fffefd" stop-opacity="0.99"/><stop offset="0.34" stop-color="#fffcf7" stop-opacity="0.96"/><stop offset="0.45" stop-color="#fff7ee" stop-opacity="0.9"/><stop offset="0.56" stop-color="#fff1e0" stop-opacity="0.82"/><stop offset="0.66" stop-color="#ffeace" stop-opacity="0.72"/><stop offset="0.75" stop-color="#ffe0b7" stop-opacity="0.59"/><stop offset="0.84" stop-color="#ffd59d" stop-opacity="0.44"/><stop offset="0.93" stop-color="#ffc87f" stop-opacity="0.27"/><stop offset="1" stop-color="#ffbb61" stop-opacity="0.1"/></radialGradient></defs><title>1</title><circle class="cls-1" cx="70.5" cy="70.5" r="70.5"/><path class="cls-2" d="M107.68,53.27c-3,3.86-6,6-9,9.44-7.3,7.72-9.87,7.72-11.16,7.72h-.43a6.84,6.84,0,0,1-5.15-1.72l-2.57,3.87,22.74,23.6c.86,1.28,1.72,3,1.29,4.72a5.45,5.45,0,0,1-1.72,3.86,6.91,6.91,0,0,1-3.86,1.29A5.22,5.22,0,0,1,94,104.33c-.86-.86-13.3-15.45-21-24l-22.31,24a5.51,5.51,0,0,1-4.29,1.72A5.62,5.62,0,0,1,42,104.76a4.18,4.18,0,0,1-1.72-3.86c-.43-1.72.43-3.86,1.29-5.15C42.89,94.46,60.91,76.87,65.2,73l-1.72-1.72c-1.28.43-9.44-.43-11.58-2.58-1.72-2.14-12.45-18-12.45-25.31,0-1.72.86-4.72,3.87-4.72C45,38.68,47.18,40,50.18,43c1.72,1.72,18.88,19.31,22.74,23.6L75.07,64a15.44,15.44,0,0,1-3-4.3,7,7,0,0,1,.86-5.14l.43-.86A100.16,100.16,0,0,1,89.66,37c.85-.86,1.71-.86,3-.86s1.72.86,2.15,1.72a2.8,2.8,0,0,1,0,2.58c-.86.85-12,12.87-13.31,14.16-.43.42-1.28,2.57-.85,2.57h.42a2.23,2.23,0,0,0,1.72-.86c.86-.86,12-12.44,12.87-13.3a3.28,3.28,0,0,1,2.15-.86,2.71,2.71,0,0,1,2.57,2.15c.43.86.43,2.14-.43,2.57-.85,1.29-12.44,13.73-12.87,14.59-.43.43-.86.86-.43,1.72l.43.43c.86-.43,1.29-.43,1.72-.86.43-.86,12-12.45,13.3-13.3a3.26,3.26,0,0,1,1.72-.86,4.52,4.52,0,0,1,3.86,2.14,2.71,2.71,0,0,1,0,2.58Z"/></svg>