<svg id="图层_1" data-name="图层 1" xmlns="http://www.w3.org/2000/svg" xmlns:xlink="http://www.w3.org/1999/xlink" viewBox="0 0 141 141"><defs><style>.cls-1{fill:url(#未命名的渐变_42);}.cls-2{fill:#ffbb61;}</style><radialGradient id="未命名的渐变_42" cx="74.51" cy="65.24" r="145.25" gradientUnits="userSpaceOnUse"><stop offset="0" stop-color="#fff"/><stop offset="0.2" stop-color="#fffefd" stop-opacity="0.99"/><stop offset="0.34" stop-color="#fffcf7" stop-opacity="0.96"/><stop offset="0.45" stop-color="#fff7ee" stop-opacity="0.9"/><stop offset="0.56" stop-color="#fff1e0" stop-opacity="0.82"/><stop offset="0.66" stop-color="#ffeace" stop-opacity="0.72"/><stop offset="0.75" stop-color="#ffe0b7" stop-opacity="0.59"/><stop offset="0.84" stop-color="#ffd59d" stop-opacity="0.44"/><stop offset="0.93" stop-color="#ffc87f" stop-opacity="0.27"/><stop offset="1" stop-color="#ffbb61" stop-opacity="0.1"/></radialGradient></defs><circle class="cls-1" cx="70.41" cy="70.13" r="70.5"/><path class="cls-2" d="M66.78,44.62s.33-7.32-9.94-8.74C56.85,35.89,54.45,46.7,66.78,44.62Zm43.89,17.66a17.83,17.83,0,0,0-3.06-2.5l.42-.45c2-2.2,3-3.89,3-5.33a3.1,3.1,0,0,0-.81-2.28,12.43,12.43,0,0,0-4.46-3,8.13,8.13,0,0,0-6.67.19c-2.88,1.45-3.63,3.26-3.75,4.53a4.71,4.71,0,0,0,2.06,4.17c.31.23.59.42.85.58.64.41.77.51.91.83A9.51,9.51,0,0,1,99.49,63c0,.23,0,.46,0,.71-.11,2.54-.3,6.35-2.39,9.74a15.41,15.41,0,0,1-7.83,6.06,19.42,19.42,0,0,0,1.92-3.78,25.5,25.5,0,0,0,1.45-11,23.33,23.33,0,0,0-3.28-10.54c-3.51-5.64-9-7.71-15.36-5.82-.36.1-.73.19-1.1.26a18.79,18.79,0,0,1,4-6.63l-1.45-1.44L74,39.08a22,22,0,0,0-5.39,9.66,12.7,12.7,0,0,1-1.83-.4c-6.39-1.88-11.84.18-15.36,5.82A20.09,20.09,0,0,0,48.57,65.9c-5.28-2.18-11-2.13-15.52.24a3.45,3.45,0,0,1-2.24.4l-.29-.05a5.27,5.27,0,0,0-4.42,9c-1.21,6.74,2.77,14.19,9.8,18.26a21.43,21.43,0,0,0,7.65,2.7,19.51,19.51,0,0,0,2.84.22,16.41,16.41,0,0,0,8.11-2c1.78,2.48,5.17,4.76,9.7,6.51a51.12,51.12,0,0,0,18.51,3.23A42.22,42.22,0,0,0,104.76,98a27.24,27.24,0,0,0,8.25-8,20.69,20.69,0,0,0,3.32-11.31c0-8.65-3.08-13.66-5.66-16.35ZM99.48,53.84c0-.11.29-.62,1.49-1.22a3.53,3.53,0,0,1,1.61-.37,4.84,4.84,0,0,1,1.77.35,8.42,8.42,0,0,1,2.48,1.5,12.06,12.06,0,0,1-1.93,2.55c-.62.67-1.22,1.25-1.63,1.65-.1-.33-.2-.62-.31-.9a5.81,5.81,0,0,0-2.45-2.65,7.19,7.19,0,0,1-.61-.41c-.34-.24-.43-.45-.42-.5Zm-44.6,2.5A9,9,0,0,1,60.2,52a9.94,9.94,0,0,1,5.39.25,17,17,0,0,0,9.53,0A10.1,10.1,0,0,1,80.5,52a9,9,0,0,1,5.33,4.3c3,4.86,3.63,12.24,1.47,17.94-1.79,4.7-4.68,6.44-6.81,7.07l0,.11a66.46,66.46,0,0,1-7.39.27h-.07l-10.73.55-.28.09-.15.06c-4.36-2.82-7.83-8.3-8.91-14.07a16.88,16.88,0,0,1,1.89-12ZM51.76,91.45a13.51,13.51,0,0,1-7.61,1A17.53,17.53,0,0,1,38,90.22a17,17,0,0,1-6.46-6.57A11.48,11.48,0,0,1,30.2,76,3.46,3.46,0,0,0,29,72.6a1.22,1.22,0,0,1-.4-1.06,1.17,1.17,0,0,1,1.15-1H30a7.66,7.66,0,0,0,5-.79c4-2.12,9.4-1.77,14.11.91a26.82,26.82,0,0,0,8,13.93v.45a9.1,9.1,0,0,0-1.39.75,7,7,0,0,0-3.31,2.81,5.18,5.18,0,0,0-.62,2.82Zm50.77,3.09a37.93,37.93,0,0,1-19.81,5.74c-13.6,0-23.42-5-25.28-8.66a3.37,3.37,0,0,1-.2-.49c-.26-.73-.1-1,0-1.17a1.78,1.78,0,0,1,.47-.53,5.6,5.6,0,0,1,.81-.26l.62-.12.45-.47.07-.07.11,0,.62-.13.45-.47a6.29,6.29,0,0,1,.93-.82,5.82,5.82,0,0,1,1.39-.75l10-.5a64.31,64.31,0,0,0,9.28-.46l.54,0,.08-.06.25,0c8.27-1.25,14.08-4.48,17.27-9.62,2.66-4.29,2.87-8.94,3-11.72,0-.23,0-.46,0-.67s0-.59,0-.86a11.26,11.26,0,0,1,4.24,2.94c2.9,3.11,4.38,7.6,4.38,13.33,0,4.42-1.69,10.74-9.71,15.93Z"/></svg>