<svg id="图层_1" data-name="图层 1" xmlns="http://www.w3.org/2000/svg" xmlns:xlink="http://www.w3.org/1999/xlink" viewBox="0 0 141 141"><defs><style>.cls-1{fill:url(#未命名的渐变_42);}.cls-2{fill:#ffdfb8;}.cls-3{fill:#ffbb61;}</style><radialGradient id="未命名的渐变_42" cx="74.61" cy="65.61" r="145.25" gradientUnits="userSpaceOnUse"><stop offset="0" stop-color="#fff"/><stop offset="0.2" stop-color="#fffefd" stop-opacity="0.99"/><stop offset="0.34" stop-color="#fffcf7" stop-opacity="0.96"/><stop offset="0.45" stop-color="#fff7ee" stop-opacity="0.9"/><stop offset="0.56" stop-color="#fff1e0" stop-opacity="0.82"/><stop offset="0.66" stop-color="#ffeace" stop-opacity="0.72"/><stop offset="0.75" stop-color="#ffe0b7" stop-opacity="0.59"/><stop offset="0.84" stop-color="#ffd59d" stop-opacity="0.44"/><stop offset="0.93" stop-color="#ffc87f" stop-opacity="0.27"/><stop offset="1" stop-color="#ffbb61" stop-opacity="0.1"/></radialGradient></defs><title>1</title><circle class="cls-1" cx="70.5" cy="70.5" r="70.5"/><path class="cls-2" d="M89.62,98.86H51.21a8.77,8.77,0,0,1-8.77-8.77V79.92h56V90.09a8.76,8.76,0,0,1-8.77,8.77Zm0,0"/><path class="cls-3" d="M75.59,69.34H65.14a2.43,2.43,0,1,1,0-4.86H75.59a2.43,2.43,0,1,1,0,4.86Zm0,0"/><path class="cls-3" d="M90.29,51.44H85.88v-10A6.49,6.49,0,0,0,79.4,35H61a6.49,6.49,0,0,0-6.49,6.48v10h-4A10.55,10.55,0,0,0,40,62V90.76a10.54,10.54,0,0,0,10.53,10.53H52v4.19a2.43,2.43,0,0,0,4.86,0v-4.19H83.91v4.19a2.43,2.43,0,1,0,4.86,0v-4.19h1.52a10.54,10.54,0,0,0,10.53-10.53V62A10.55,10.55,0,0,0,90.29,51.44Zm-30.88-10A1.62,1.62,0,0,1,61,39.86H79.4A1.63,1.63,0,0,1,81,41.48v10H59.41ZM96,90.76a5.67,5.67,0,0,1-5.67,5.67H50.54a5.68,5.68,0,0,1-5.67-5.67V62a5.68,5.68,0,0,1,5.67-5.67H90.29A5.68,5.68,0,0,1,96,62V90.76Zm0,0"/></svg>