<svg id="图层_1" data-name="图层 1" xmlns="http://www.w3.org/2000/svg" xmlns:xlink="http://www.w3.org/1999/xlink" viewBox="0 0 141 141"><defs><style>.cls-1{fill:url(#未命名的渐变_42);}.cls-2{fill:#ffbb61;}.cls-3{fill:#ffdfb8;}</style><radialGradient id="未命名的渐变_42" cx="74.57" cy="65.24" r="145.25" gradientUnits="userSpaceOnUse"><stop offset="0" stop-color="#fff"/><stop offset="0.2" stop-color="#fffefd" stop-opacity="0.99"/><stop offset="0.34" stop-color="#fffcf7" stop-opacity="0.96"/><stop offset="0.45" stop-color="#fff7ee" stop-opacity="0.9"/><stop offset="0.56" stop-color="#fff1e0" stop-opacity="0.82"/><stop offset="0.66" stop-color="#ffeace" stop-opacity="0.72"/><stop offset="0.75" stop-color="#ffe0b7" stop-opacity="0.59"/><stop offset="0.84" stop-color="#ffd59d" stop-opacity="0.44"/><stop offset="0.93" stop-color="#ffc87f" stop-opacity="0.27"/><stop offset="1" stop-color="#ffbb61" stop-opacity="0.1"/></radialGradient></defs><circle class="cls-1" cx="70.47" cy="70.13" r="70.5"/><path class="cls-2" d="M70.17,55.72a14.74,14.74,0,0,1,6.92,27.73L37.54,104.61a1.21,1.21,0,0,1-.57.16,1.23,1.23,0,0,1-1-.63,1,1,0,0,1,0-1.09L57.15,63.5a14.74,14.74,0,0,1,13-7.78m0-4.09a18.75,18.75,0,0,0-16.62,9.94L32.38,101.12a5.22,5.22,0,0,0,7.09,7.09L79,87a18.82,18.82,0,0,0-8.85-35.41Z"/><path class="cls-3" d="M65.36,77.24a2,2,0,0,1-1.44-.6l-10-10a2,2,0,0,1,2.89-2.89l10,10.05a2,2,0,0,1,0,2.89A2.07,2.07,0,0,1,65.36,77.24Zm1.41,14.67a2,2,0,0,1-1.44-.6l-7.78-7.78a2,2,0,0,1,2.89-2.89l7.78,7.78a2,2,0,0,1-1.45,3.49ZM51.46,90.34a2,2,0,0,1-1.44-.6l-5.49-5.49a2,2,0,0,1,2.89-2.89l5.49,5.49a2.06,2.06,0,0,1,0,2.89A2.11,2.11,0,0,1,51.46,90.34Z"/><path class="cls-2" d="M91.49,31.4c-4.51,0-8.16,5.33-8.16,11.91,0,4.2,1.49,7.88,3.75,10-2.42-2.57-2.14-7,.37-11.08.33-4.15,2.5-6.75,4-6.75a2.74,2.74,0,0,1,1.88,1.06,13.43,13.43,0,0,1,4-1.53C95.86,32.79,93.78,31.4,91.49,31.4Zm0,23.8h0Z"/><path class="cls-2" d="M85.39,49.11a5.86,5.86,0,0,0,.44,2.19,7.57,7.57,0,0,1-.43-2.41C85.4,49,85.39,49,85.39,49.11Zm20.22-5.84a13.45,13.45,0,0,1-1.52,4,2.75,2.75,0,0,1,1,1.85c0,1.52-2.56,3.67-6.66,4-4.06,2.56-8.58,2.84-11.15.4,2.12,2.24,5.8,3.73,10,3.73,6.57,0,11.9-3.66,11.9-8.16a7.21,7.21,0,0,0-3.59-5.84Z"/><path class="cls-2" d="M99.29,38.89a2.62,2.62,0,0,1,1.84.6c1.18,1.18.73,5-2.64,8.42a10,10,0,0,1-6.58,3.24,2.63,2.63,0,0,1-1.84-.6c-.79-.79-.61-2.3-.49-2.92a11.15,11.15,0,0,1,3.14-5.51,10,10,0,0,1,6.57-3.23m0-4.08a14,14,0,0,0-9.45,4.43c-4.65,4.65-5.84,11-2.65,14.19a6.56,6.56,0,0,0,4.73,1.78,14,14,0,0,0,9.46-4.43c4.64-4.65,5.83-11,2.64-14.19A6.6,6.6,0,0,0,99.29,34.81Z"/></svg>